<svg version="1.1" viewBox="0 0 9.2 170.2" xmlns="http://www.w3.org/2000/svg" xmlns:xlink="http://www.w3.org/1999/xlink" id="Ebene_1" overflow="hidden"><g><path d=" M 9.2 3.3 C 9.2 1.4 8.2 0.1 6.5 0.1 C 4.7 0.1 4.2 1.6 3.8 3 C 3.4 4.3 3.1 4.7 2.6 4.7 C 2.1 4.7 1.7 4.3 1.7 3.5 C 1.7 2.6 2.2 2.1 2.8 1.8 L 2 0.3 C 0.8 0.9 0 2 0 3.4 C 0 4.9 1 6.3 2.6 6.3 C 4.3 6.3 4.8 5 5.2 3.6 C 5.6 2.3 5.8 1.7 6.5 1.7 C 7 1.7 7.4 2.1 7.4 3.1 C 7.4 4.2 6.9 4.8 6.1 5.1 L 7 6.8 C 8.3 6.3 9.2 5.1 9.2 3.3 M 9.2 12.8 C 9.2 10.9 8.2 9.6 6.5 9.6 C 4.7 9.6 4.2 11.1 3.8 12.5 C 3.4 13.8 3.1 14.2 2.6 14.2 C 2.1 14.2 1.7 13.8 1.7 13 C 1.7 12.1 2.2 11.6 2.8 11.3 L 2 9.8 C 0.8 10.4 0 11.5 0 13 C 0 14.5 1 15.9 2.6 15.9 C 4.3 15.9 4.8 14.6 5.2 13.2 C 5.6 11.9 5.8 11.3 6.5 11.3 C 7 11.3 7.4 11.7 7.4 12.7 C 7.4 13.8 6.9 14.4 6.1 14.7 L 7 16.3 C 8.3 15.8 9.2 14.6 9.2 12.8 M 7.3 23.1 L 5.3 23.1 L 5.3 19.8 L 3.7 19.8 L 3.7 23.1 L 1.8 23.1 L 1.8 19.4 L 0.2 19.4 L 0.2 24.8 L 9 24.8 L 9 19.3 L 7.3 19.3 L 7.3 23.1 Z M 9.2 31.5 C 9.2 29.9 8.4 28.5 7.1 27.7 L 6.2 29.2 C 7 29.6 7.4 30.5 7.4 31.5 C 7.4 33.2 6.2 34.4 4.5 34.4 C 2.8 34.4 1.6 33.3 1.6 31.5 C 1.6 30.5 2.1 29.6 2.9 29.2 L 2 27.7 C 0.7 28.5 -0.1 29.9 -0.1 31.5 C -0.1 34.2 1.9 36.1 4.5 36.1 C 7.2 36.1 9.2 34.2 9.2 31.5 M 9.2 41.9 C 9.2 40.3 8.4 38.9 7.1 38.1 L 6.2 39.6 C 7 40 7.4 40.9 7.4 41.9 C 7.4 43.6 6.2 44.8 4.5 44.8 C 2.8 44.8 1.6 43.7 1.6 41.9 C 1.6 40.9 2.1 40 2.9 39.6 L 2 38.1 C 0.7 38.9 -0.1 40.3 -0.1 41.9 C -0.1 44.6 1.9 46.5 4.5 46.5 C 7.2 46.5 9.2 44.6 9.2 41.9 M 9.2 52.7 C 9.2 50.8 8 49.3 6.1 49.3 L 0.2 49.3 L 0.2 51 L 6 51 C 6.9 51 7.5 51.5 7.5 52.6 C 7.5 53.8 6.9 54.2 6 54.2 L 0.2 54.2 L 0.2 55.9 L 6.1 55.9 C 8 56.1 9.2 54.6 9.2 52.7 M 9.2 62.6 C 9.2 60.7 8.2 59.4 6.5 59.4 C 4.7 59.4 4.2 60.9 3.8 62.3 C 3.4 63.6 3.1 64 2.6 64 C 2.1 64 1.7 63.6 1.7 62.8 C 1.7 61.9 2.2 61.4 2.8 61.1 L 2 59.6 C 0.8 60.2 0 61.3 0 62.7 C 0 64.2 1 65.6 2.6 65.6 C 4.3 65.6 4.8 64.3 5.2 62.9 C 5.6 61.6 5.8 61 6.5 61 C 7 61 7.4 61.4 7.4 62.4 C 7.4 63.5 6.9 64.1 6.1 64.4 L 7 66.1 C 8.3 65.6 9.2 64.4 9.2 62.6 M 7.3 79.2 L 7.3 81 L 1.8 81 L 1.8 79.2 C 1.8 77.7 2.9 76.6 4.5 76.6 C 6.2 76.6 7.3 77.6 7.3 79.2 M 0.2 79.2 L 0.2 82.7 L 9 82.7 L 9 79.2 C 9 76.8 7.1 75 4.6 75 C 2.1 74.9 0.2 76.7 0.2 79.2 M 7.3 90.3 L 5.3 90.3 L 5.3 87 L 3.7 87 L 3.7 90.3 L 1.8 90.3 L 1.8 86.6 L 0.2 86.6 L 0.2 92 L 9 92 L 9 86.5 L 7.3 86.5 L 7.3 90.3 Z M 1.8 100.7 L 1.8 98.9 C 1.8 98.2 2.4 97.7 3.1 97.7 C 3.8 97.7 4.4 98.2 4.4 98.9 L 4.4 100.7 L 1.8 100.7 Z M 9 97.6 L 9 95.7 L 5.7 97.7 C 5.2 96.7 4.2 96 3.1 96 C 1.5 96 0.2 97.3 0.2 98.9 L 0.2 102.4 L 9 102.4 L 9 100.7 L 5.9 100.7 L 5.9 99.4 L 9 97.6 Z M 7.3 110.1 L 5.3 110.1 L 5.3 106.8 L 3.7 106.8 L 3.7 110.1 L 1.8 110.1 L 1.8 106.4 L 0.2 106.4 L 0.2 111.8 L 9 111.8 L 9 106.3 L 7.3 106.3 L 7.3 110.1 Z M 7.3 120 L 5.3 120 L 5.3 116.7 L 3.7 116.7 L 3.7 120 L 1.8 120 L 1.8 116.3 L 0.2 116.3 L 0.2 121.7 L 9 121.7 L 9 116.2 L 7.3 116.2 L 7.3 120 Z M 0.2 127.6 L 5.6 127.6 L 0.2 131.4 L 0.2 132.7 L 9 132.7 L 9 131 L 3.6 131 L 9 127.1 L 9 125.8 L 0.2 125.8 L 0.2 127.6 Z M 9 138.3 L 9 136.6 L 0.2 136.6 L 0.2 138.3 C 0.2 138.3 9 138.3 9 138.3 Z M 4.3 141.6 L 4.3 146 L 5.8 146 L 5.8 143.3 C 6.8 143.6 7.5 144.5 7.5 145.9 C 7.5 147.7 6.3 148.9 4.6 148.9 C 2.9 148.9 1.7 147.7 1.7 146 C 1.7 144.9 2.2 144 2.9 143.6 L 2.1 142.2 C 0.8 142.9 0 144.4 0 146 C 0 148.6 2 150.6 4.6 150.6 C 7.1 150.6 9.2 148.6 9.2 145.9 C 9.2 143.4 7.5 141.6 5 141.6 C 5 141.6 4.3 141.6 4.3 141.6 Z M 0.2 155.4 L 5.6 155.4 L 0.2 159.2 L 0.2 160.5 L 9 160.5 L 9 158.8 L 3.6 158.8 L 9 155 L 9 153.7 L 0.2 153.7 L 0.2 155.4 Z M 7.3 168.5 L 5.3 168.5 L 5.3 165.2 L 3.7 165.2 L 3.7 168.5 L 1.8 168.5 L 1.8 164.8 L 0.2 164.8 L 0.2 170.2 L 9 170.2 L 9 164.7 L 7.3 164.7 L 7.3 168.5 Z" fill="#0075BE"/></g></svg>