<svg version="1.1" viewBox="0 0 99.21 18.92" xmlns="http://www.w3.org/2000/svg" xmlns:xlink="http://www.w3.org/1999/xlink" id="Ebene_1" overflow="hidden"><defs></defs><path d=" M 24.83 18.9 L 15.55 0 L 9.19 0 L 0 18.9 L 16.26 18.9 L 13.87 13.36 L 9.46 13.36 L 12.33 6.91 L 17.72 18.91 Z M 58.11 6.73 C 58.11 9.08 54.57 8.73 54.57 8.73 L 54.57 5.16 C 54.57 5.16 58.11 4.46 58.11 6.74 M 63.11 8.52 C 64.2127 7.02101 64.4658 5.05988 63.78 3.33 C 62.9231 1.43222 61.0793 0.170854 59 0.0600004 L 48.48 0.06 L 48.48 6.46 C 47.36 2.56 43.37 0.28 39.57 0.06 L 31.83 0.06 L 31.83 8.94 L 26.28 0 L 20.52 0 L 20.52 7.54 L 26 18.9 L 26.22 18.9 L 26.22 9.78 L 31.56 18.9 L 37.56 18.9 L 37.56 5.39 C 39.4369 5.08602 41.3191 5.90215 42.38 7.48 C 42.9826 8.47103 43.0969 9.68385 42.69 10.77 C 41.9262 12.2804 40.3825 13.2374 38.69 13.25 L 38.69 18.9 C 39.7779 18.8913 40.8613 18.7605 41.92 18.51 C 45.0491 17.5698 47.5002 15.1262 48.45 12 L 48.45 18.9 L 54.52 18.9 L 54.52 9.53 L 59.79 18.9 L 71.1 18.9 L 71.1 6.64 L 65.25 6.64 L 65.25 15.82 L 61.1 10 C 61.8289 9.59289 62.5013 9.09196 63.1 8.51 M 81.51 5.39 L 83.77 0 L 65.21 0 L 65.21 5.39 L 72.66 5.39 L 72.66 18.92 L 78.66 18.92 L 78.66 5.37 Z M 96.62 13.27 L 88.86 13.27 L 94.05 0 L 85.05 0 L 82.83 5.39 L 85.45 5.39 L 79.33 18.92 L 99.21 18.92 Z" fill="#0075BE"/></svg>